<svg xmlns="http://www.w3.org/2000/svg" version="1.1" x="0" y="0" viewBox="0 0 24 24" ><g><path d="M16.508 9.499a2 2 0 0 1-2-2V1.663A1.51 1.51 0 0 1 16.316.188a9.545 9.545 0 0 1 7.507 7.503 1.51 1.51 0 0 1-1.475 1.808h-5.84ZM13.5 11.5h-1V5.673a3.38 3.38 0 0 0-1.332-2.703 3.454 3.454 0 0 0-3.024-.595C2.853 3.794-.542 8.795.071 14.266c.558 4.973 4.563 9.03 9.524 9.647.468.058.938.087 1.405.087.583 0 1.163-.045 1.734-.136a1.5 1.5 0 0 0-.469-2.963c-.751.12-1.526.13-2.299.034-3.601-.447-6.508-3.393-6.913-7.004-.447-3.985 2.021-7.626 5.868-8.659a.472.472 0 0 1 .421.078.388.388 0 0 1 .158.323V13a1.5 1.5 0 0 0 1.5 1.5h2.5a1.5 1.5 0 1 0 0-3Zm8.185 5.767-3.042-.507a.768.768 0 0 1-.644-.76c0-.551.449-1 1-1h2.268c.356 0 .688.192.867.5a.999.999 0 1 0 1.731-1.001A3.01 3.01 0 0 0 21.267 13h-.268a1 1 0 1 0-2 0c-1.654 0-3 1.346-3 3 0 1.36.974 2.51 2.315 2.733l3.042.507A.768.768 0 0 1 22 20c0 .551-.449 1-1 1h-2.268c-.356 0-.688-.192-.867-.5a.998.998 0 0 0-1.366-.365.999.999 0 0 0-.365 1.366A3.01 3.01 0 0 0 18.732 23H19a1 1 0 1 0 2 0c1.654 0 3-1.346 3-3 0-1.36-.974-2.51-2.315-2.733Z" fill="#E3457F" opacity="1" ></path></g></svg>